<mxfile host="app.diagrams.net" modified="2024-03-19T09:02:49.964Z" agent="Mozilla/5.0 (X11; Ubuntu; Linux x86_64; rv:123.0) Gecko/20100101 Firefox/123.0" etag="vTFf1kBzx9WGoT2k_f4w" version="24.0.7" type="github">
  <diagram id="R2lEEEUBdFMjLlhIrx00" name="Page-1">
    <mxGraphModel dx="941" dy="515" grid="1" gridSize="10" guides="1" tooltips="1" connect="1" arrows="1" fold="1" page="1" pageScale="1" pageWidth="850" pageHeight="1100" math="0" shadow="0" extFonts="Permanent Marker^https://fonts.googleapis.com/css?family=Permanent+Marker">
      <root>
        <mxCell id="0" />
        <mxCell id="1" parent="0" />
        <mxCell id="vtilnRqLbUMHcYJGWRie-12" value="SetAbstraction" style="rounded=0;whiteSpace=wrap;html=1;rotation=-90;fillColor=#dae8fc;strokeColor=#6c8ebf;" vertex="1" parent="1">
          <mxGeometry x="120" y="400" width="110" height="30" as="geometry" />
        </mxCell>
        <mxCell id="vtilnRqLbUMHcYJGWRie-13" value="&lt;font style=&quot;font-size: 12px;&quot;&gt;LocalAggregation&lt;/font&gt;" style="rounded=0;whiteSpace=wrap;html=1;rotation=-90;fillColor=#d5e8d4;strokeColor=#82b366;" vertex="1" parent="1">
          <mxGeometry x="150" y="400" width="110" height="30" as="geometry" />
        </mxCell>
        <mxCell id="vtilnRqLbUMHcYJGWRie-16" value="SetAbstraction" style="rounded=0;whiteSpace=wrap;html=1;rotation=-90;fillColor=#dae8fc;strokeColor=#6c8ebf;" vertex="1" parent="1">
          <mxGeometry x="210" y="430" width="110" height="30" as="geometry" />
        </mxCell>
        <mxCell id="vtilnRqLbUMHcYJGWRie-17" value="&lt;font style=&quot;font-size: 12px;&quot;&gt;LocalAggregation&lt;/font&gt;" style="rounded=0;whiteSpace=wrap;html=1;rotation=-90;fillColor=#d5e8d4;strokeColor=#82b366;" vertex="1" parent="1">
          <mxGeometry x="240" y="430" width="110" height="30" as="geometry" />
        </mxCell>
        <mxCell id="vtilnRqLbUMHcYJGWRie-18" value="SetAbstraction" style="rounded=0;whiteSpace=wrap;html=1;rotation=-90;fillColor=#dae8fc;strokeColor=#6c8ebf;" vertex="1" parent="1">
          <mxGeometry x="300" y="460" width="110" height="30" as="geometry" />
        </mxCell>
        <mxCell id="vtilnRqLbUMHcYJGWRie-19" value="&lt;font style=&quot;font-size: 12px;&quot;&gt;LocalAggregation&lt;/font&gt;" style="rounded=0;whiteSpace=wrap;html=1;rotation=-90;fillColor=#d5e8d4;strokeColor=#82b366;" vertex="1" parent="1">
          <mxGeometry x="330" y="460" width="110" height="30" as="geometry" />
        </mxCell>
        <mxCell id="vtilnRqLbUMHcYJGWRie-20" value="SetAbstraction" style="rounded=0;whiteSpace=wrap;html=1;rotation=-90;fillColor=#dae8fc;strokeColor=#6c8ebf;" vertex="1" parent="1">
          <mxGeometry x="390" y="490" width="110" height="30" as="geometry" />
        </mxCell>
        <mxCell id="vtilnRqLbUMHcYJGWRie-21" value="&lt;font style=&quot;font-size: 12px;&quot;&gt;LocalAggregation&lt;/font&gt;" style="rounded=0;whiteSpace=wrap;html=1;rotation=-90;fillColor=#d5e8d4;strokeColor=#82b366;" vertex="1" parent="1">
          <mxGeometry x="420" y="490" width="110" height="30" as="geometry" />
        </mxCell>
        <mxCell id="vtilnRqLbUMHcYJGWRie-23" value="FeaturePropogation" style="rounded=0;whiteSpace=wrap;html=1;rotation=-90;fillColor=#fff2cc;strokeColor=#d6b656;" vertex="1" parent="1">
          <mxGeometry x="530" y="445" width="140" height="30" as="geometry" />
        </mxCell>
        <mxCell id="vtilnRqLbUMHcYJGWRie-25" value="FeaturePropogation" style="rounded=0;whiteSpace=wrap;html=1;rotation=-90;fillColor=#fff2cc;strokeColor=#d6b656;" vertex="1" parent="1">
          <mxGeometry x="470" y="475" width="140" height="30" as="geometry" />
        </mxCell>
        <mxCell id="vtilnRqLbUMHcYJGWRie-26" value="FeaturePropogation" style="rounded=0;whiteSpace=wrap;html=1;rotation=-90;fillColor=#fff2cc;strokeColor=#d6b656;" vertex="1" parent="1">
          <mxGeometry x="590" y="415" width="140" height="30" as="geometry" />
        </mxCell>
        <mxCell id="vtilnRqLbUMHcYJGWRie-27" value="FeaturePropogation" style="rounded=0;whiteSpace=wrap;html=1;rotation=-90;fillColor=#fff2cc;strokeColor=#d6b656;" vertex="1" parent="1">
          <mxGeometry x="650" y="385" width="140" height="30" as="geometry" />
        </mxCell>
        <mxCell id="vtilnRqLbUMHcYJGWRie-28" value="MLP" style="rounded=0;whiteSpace=wrap;html=1;rotation=-90;fillColor=#f8cecc;strokeColor=#b85450;" vertex="1" parent="1">
          <mxGeometry x="60" y="370" width="120" height="30" as="geometry" />
        </mxCell>
      </root>
    </mxGraphModel>
  </diagram>
</mxfile>
